<?xml version="1.0" encoding="utf-8"?>
<!-- Generator: Adobe Illustrator 28.3.0, SVG Export Plug-In . SVG Version: 6.00 Build 0)  -->
<svg version="1.1" id="Layer_1" xmlns="http://www.w3.org/2000/svg" xmlns:xlink="http://www.w3.org/1999/xlink" x="0px" y="0px"
	 viewBox="0 0 1024 1024" style="enable-background:new 0 0 1024 1024;" xml:space="preserve">
<path d="M508.2,821.9c-122.9,0-251.5-77-289.7-198c-19.1-60.7-20.6-131-4.2-192.3c16.1-60.3,57.5-117.5,106.8-155.2
	c99.8-76.3,233.6-82.6,343.4-24.7c115.2,60.7,173.8,193.4,150.2,319.7C788.1,714.4,655.8,826.9,508.2,821.9L508.2,821.9z
	 M670.5,413.6C645.9,326.5,553.4,273.2,466,279.5c-81.2,5.9-155.5,60.3-180.9,138.5c-24.7,76.1-2.6,167.4,65.7,213.2
	c61.7,41.4,165.6,27.3,186.3-54c4.6-17.9,4.7-40.5-2.9-57.6c-2.2-5-10-12.4-9.3-18.1c1.1-9.2,10.2-4.5,14.3-1.4
	c15.6,11.9,23.4,37.7,26,56.2c2.9,20.6-2.1,38.5-8.2,57.7c28.7,24.6,70.6,18.3,98.5,44.7c12.8,12.1,22.8,28,41.9,29.9
	c13.8,1.4,34.8-6,39.8-20.5c-13-2.7-23.7-5.7-33.4-15.4c-5.9-5.9-19-20.3-4.8-24.7c8,1.2,13.5,13.8,20,18.3
	c9.1,6.3,21.8,9.2,32.2,4.6c1.8-5.9,4-12,4.1-18.4c-7.4-5.3-16.1-10.2-20-19c-3-6.7-2-14.2,7.3-13.3c4.7,2.5,5.6,8,9,11.7
	c4,4.2,9.2,5.8,14.4,8c21.1-5.2,4.7-32.3-1.1-43.8c-9.7-19.3-19.6-38.5-29.5-57.7s-19.6-38.5-29.3-57.8
	C695.8,440.8,689,426.5,670.5,413.6L670.5,413.6z M548.4,631.2c-35.1,47.8-98.6,67.8-155.9,55.9c-29.2-6-56.8-20.6-78.9-40.5
	c-10.4-9.4-20-19.7-28.2-31c-6.1-8.3-12.5-29.1-24.1-30.4c-1.6,0.4-3.2,0.8-4.9,1.2c-27.2,19.8-3,71.7,10.7,92.6
	c19.2,29.4,48,46.9,81.1,57.2c34.3,10.7,74.5,11.7,107.8-3.1c17-7.6,33.2-18.4,47.6-30.1c9.3-7.5,25.7-29.4,38.8-28.5
	c3.7,10.7,6,21.6,7.9,32.8c13.4-17.4,20.7-37,25-57.8C565.4,644.7,556.5,638.7,548.4,631.2L548.4,631.2z"/>
<path d="M547.7,491c-21.3-35.1-67.6-54.8-105.4-38.3c-7.9,11.3,6.9,34.8,14.9,42.4c5.4,5.2,12,9.4,19,12c11,4.1,19,0.4,29.9,1
	c7.6,4.2,3.4,25,1.9,31.1c-2.4,9.2-6.5,18.2-12.2,25.8c-11.6,15.7-30.3,25.4-49.6,27.6c-46.3,5.3-86.5-33.5-96.8-76.4
	c-22.2-91.6,72.3-180.3,161.3-137.2C544.4,395.5,596.6,461.1,547.7,491L547.7,491z M426.1,463.1c-24,19.1-35.9,55.2-12.9,80.6
	c21.1,23.2,60,13.6,66.1-17.6C448.6,521.3,427.8,493.1,426.1,463.1L426.1,463.1z"/>
<path d="M648.5,497.5c-15,8.5-31.3,3.2-38.9-14.8c-5.1-0.5-8.5-3.5-10.5-8.6c0.4-1.1,0.8-2.4,1.4-4.2c11.6-1.8,27.6-2.8,39.2-0.2
	c12.3,2.7,18.2,12.3,23.6,22.8c3.2,6.2,17,24.3,7.5,29.7C660.5,527.9,652.3,503.5,648.5,497.5L648.5,497.5z"/>
</svg>
