<?xml version="1.0" encoding="UTF-8"?><svg id="a" xmlns="http://www.w3.org/2000/svg" viewBox="0 0 530 530">
    <defs>
        <style>.b{fill:#e4e4e4;}.b,.c,.d,.e{stroke-width:0px;}.c{fill:#ddd;}.d{fill:#d9d9d9;}.e{fill:#b7b7b7;}</style>
    </defs>
  <path
    class="b"
    d="M60.11,394.42c13.77,13.41,28.94,24.9,46.36,33.2,20.18,9.6,41.26,15.66,63.78,15.9,6.2.66,12.4.69,18.6-.03,30.3-.49,58.11-9.02,83.41-25.72.82-.54,1.76-.9,2.65-1.34,7.29-3.6,15.14-5.94,22.23-9.98,1.42-.8,2.85-1.07,4.1.19,1.25,1.26,1.2,2.78.08,4.02-3.4,3.75-3.13,8.13-2.51,12.67.28,2.02,1.1,4.45-2.01,5.27-12.79.46-20.22,9.92-28.76,17.33-18.03,15.64-36.74,30.5-58.93,39.59-12.33,5.05-25.8,7.33-38.76,10.85-1.43.39-2.89.68-4.33,1.02h-20.99c-11.24-2.23-22.64-3.82-33.67-6.81-21.83-5.91-42.74-14.28-60.4-28.83-27.87-22.97-44.63-52.44-49.81-88.32,8.58-7.57,13.06-7.83,21.93-1.23.8.6,1.57,1.31,2.48,1.66,11.69,4.56,21.62,11.99,31.67,19.25.85.61,1.8,1.11,2.86,1.31Z"
  />
  <path
    class="d"
    d="M407.92,407.45c-14.14-11.08-30.67-16.42-47.94-20.11-14.21-3.04-28.19-6.73-40.07-15.83-3.71-2.84-5.71-5.79-4.09-10.6,4.51-13.44,5.61-27.34,5.2-41.41,1.48.49,3.55.52,4.37,1.54,10.9,13.64,26.06,20.03,41.91,25.64,25.82,9.14,40.63,30.53,40.63,57.78,0,1,0,2,0,2.99Z"
  />
  <path
    class="d"
    d="M296.81,428.61c-.29-2.62-.04-5.45-.98-7.81-1.77-4.41-1.34-7.8,2.72-10.52.46-.31.61-1.07.9-1.62-.73.19-1.47.33-2.19.56-7.45,2.4-14.89,4.8-22.34,7.21,8.8-8.77,17.52-17.62,26.5-26.2.98-.94,3.89-1.04,5.17-.29,6.7,3.96,13.24,8.21,19.63,12.64,1.13.79,2.17,3.11,1.86,4.38-3.75,15.22-8.54,30.06-17.68,43.07-.99,1.4-2.58,2.38-3.89,3.56-.87-1.66-1.93-3.25-2.57-5-2.45-6.63-4.77-13.32-7.13-19.98Z"
  />
  <path
    class="c"
    d="M60.11,394.42c-3.62-1.2-7.5-1.92-10.82-3.69-7.54-4.03-14.82-8.55-22.18-12.91-1.99-1.18-4.06-2.32-5.8-3.81-4.47-3.84-8.95-5.34-14.41-1.73-1.51,1-3.81.81-5.75,1.17-.77-9.37.55-18.46,5.86-26.26,1.97-2.9,5.87-5.39,9.31-6.13,3.83-.82,6.75,1.99,8.75,5.91,8.57,16.85,19.1,32.32,33.24,45.1.72.65,1.2,1.56,1.8,2.36Z"
  />
  <path
    class="e"
    d="M188.86,443.49c-6.2,0-12.4.02-18.6.03,6.2,0,12.4-.02,18.6-.03Z"
  />
  <path
    class="b"
    d="M228.01,32.6h16.99c8.95.73,17.93,1.05,26.86,1.91,12.07,1.17,23.59,4.87,34.82,9.24,37.04,14.43,67.53,37.77,92.2,68.76,10.64,13.37,19.14,28.07,24.37,44.45,2,6.27,5.32,11.41,10.62,15.29,7.56,5.53,13.05,12.79,17.24,21.07,7.81,15.46,16.04,30.7,23.7,46.24,16.85,34.22,34.41,68.08,51.79,102.02,2.56,4.99,1.83,10.65,3.26,15.87v6c-.77,1.47-.75,3.19-1.35,4.68-1.34,3.34-4,5.89-7.53,5.42-7.02-.94-13.55-3.4-17.6-9.86-.97-1.55-1.78-3.21-3.14-4.47-1.79-1.66-3.8-2.96-6.29-1.79-2.44,1.15-3.01,3.52-2.81,5.94.5,6.08,4.24,10.35,8.44,14.25,2.19,2.04,4.69,3.72,7.01,5.62,3.35,2.75,4.17,6.24,3.54,10.3-.1.66.02-.16-.09.49-2.4,13.24-6.33,15.96-19.84,13.58-8.11-1.43-15.05-5.17-20.98-10.86-3.12-3-5.99-6.28-9.35-9.01-2.12-1.73-4.59-3.21-7.27-1.37-2.63,1.8-2.21,4.65-1.59,7.3.82,3.5,2.9,6.34,5.25,8.97,6.85,7.66,15.15,12.85,25.21,15.31,9.54,2.34,10.31,5.46,3.33,12.53-7.99,8.1-17.2,13.83-29.04,13.35-8.34-.34-15.92-3.28-22.65-8.28-10.5-7.8-18.09-18.52-27.55-27.38,2.22-25.03-14.86-50.8-37.09-58.45-10.34-3.56-20.74-6.97-29.9-13.4-5.1-3.58-9.72-7.55-13.69-12.22-1.58-1.86-3.3-3.07-5.46-3.91-1.52-3.77-1.42-7.84-1.82-11.76-1.73-16.96-7.79-32.26-17.11-46.38-2.03-3.08-4.43-5.86-7.64-7.78-2.52-1.51-5.29-2.56-7.91-.45-2.5,2.02-1.8,4.77-.97,7.38.51,1.59,1.25,3.09,2.08,4.53,13.77,23.76,14.16,48.22,4.28,73.43-5.57,14.2-13.49,27.19-24.42,37.34-12.39,11.5-26.81,20.69-43.05,26.64-12.52,4.59-25.45,6.46-38.54,7.66-5.64.52-11.26-.77-16.86-1.53-39.69-5.33-70.52-25.88-96.46-55.39-25.57-29.09-37.92-63.44-41.44-101.31-5.2-56,11.83-105.15,47.66-147.93,30.4-36.3,69.91-57.79,115.44-68.76,10.58-2.55,21.6-2.42,32.47-2.79.97-.03,2.01.27,2.86-.49ZM195.65,123.07c-40.74,7.6-69.41,30.76-85.77,68.7-9.05,20.99-9.26,43.15-8.08,65.72,2.03,38.83,36.05,85.98,81.22,88.64,14.39.85,28.8.87,42.16-5.35,28.01-13.04,42.58-39.22,39.71-70.33-.63-6.81-3.19-9.1-10.02-8.88-4.14.14-8.41,1.12-12.38.39-17.09-3.16-30.67-11.91-38.41-27.76-3.37-6.89-5.1-14.67-6.78-22.22-.38-1.73,2.07-5.43,3.98-6.14,21.99-8.17,43.18-5.4,63.41,5.87,11.88,6.62,22.28,15.04,30.91,25.71,5.69,7.04,12.59,7.12,17.78-.29,3.5-4.99,6.34-11.17,7.22-17.15,3.87-26.13-5.33-48.17-23.44-66.63-21.52-21.94-47.81-32.61-78.67-32.13-7.62.58-15.38.46-22.85,1.85ZM378.33,222.62c-5.83,0-11.7-.42-17.46.22-2.1.23-5.67,3.13-5.53,4.51.3,3,2.18,6.09,4.1,8.61,2.37,3.12,5.89,5.38,8.13,8.57,6.44,9.17,15.4,11.61,25.82,10.33,8.16-1.01,10.84.24,14.98,7.55,2.12,3.75,3.79,8.25,6.96,10.75,2.62,2.07,7.45,2.78,10.74,1.93,1.61-.42,3.43-6.23,2.6-8.76-2.51-7.69-6.33-14.95-9.53-22.42-6.48-15.12-17.18-23.38-34.32-21.43-2.14.24-4.33.03-6.49.03,0,.03,0,.06,0,.1ZM170.67,296.48c10.01,10.11,21.66,15.95,36.44,11.25,11.42-3.63,18.42-12.1,24.01-21.98,1.88-3.32.27-5.57-3.46-6.58-25.56-6.95-39.99-24.21-45.79-49.51-.47-2.04-2.02-5.18-3.36-5.34-2.01-.24-4.87,1.18-6.34,2.83-9.28,10.36-14.36,22.59-15.34,36.4.69,12.77,4.97,23.97,13.85,32.94Z"
  />
</svg>
